<svg width="48" height="48" viewBox="0 0 48 48" fill="none" xmlns="http://www.w3.org/2000/svg">
<g id="Icons/48/Required fields filled ">
<path id="Union" fill-rule="evenodd" clip-rule="evenodd" d="M31 4H10V44H37H38V43.9291C41.3923 43.4439 44 40.5265 44 37C44 33.4735 41.3923 30.5561 38 30.0709V11L31 4Z" fill="white"/>
<g id="Vector">
<path fill-rule="evenodd" clip-rule="evenodd" d="M13 14C13 13.4477 13.4477 13 14 13H25C25.5523 13 26 13.4477 26 14C26 14.5523 25.5523 15 25 15H14C13.4477 15 13 14.5523 13 14Z" fill="#81919D"/>
<path fill-rule="evenodd" clip-rule="evenodd" d="M13 18C13 17.4477 13.4477 17 14 17H34C34.5523 17 35 17.4477 35 18C35 18.5523 34.5523 19 34 19H14C13.4477 19 13 18.5523 13 18Z" fill="#81919D"/>
<path fill-rule="evenodd" clip-rule="evenodd" d="M13 22C13 21.4477 13.3788 21 13.8462 21H23.1538C23.6212 21 24 21.4477 24 22C24 22.5523 23.6212 23 23.1538 23H13.8462C13.3788 23 13 22.5523 13 22Z" fill="#81919D"/>
<path fill-rule="evenodd" clip-rule="evenodd" d="M13 26C13 25.4477 13.3788 25 13.8462 25H23.1538C23.6212 25 24 25.4477 24 26C24 26.5523 23.6212 27 23.1538 27H13.8462C13.3788 27 13 26.5523 13 26Z" fill="#81919D"/>
</g>
<path id="Union_2" fill-rule="evenodd" clip-rule="evenodd" d="M10 2C8.89543 2 8 2.89543 8 4V44C8 45.1046 8.89543 46 10 46H25C25.5523 46 26 45.5523 26 45C26 44.4477 25.5523 44 25 44H10V4H30V10C30 11.1046 30.8954 12 32 12H38V23C38 23.5523 38.4477 24 39 24C39.5523 24 40 23.5523 40 23V11.4142C40 10.8838 39.7893 10.3751 39.4142 10L32 2.58579C31.6249 2.21071 31.1162 2 30.5858 2H10ZM36.5858 10L32 5.41421V10H36.5858Z" fill="#2F373E"/>
<path id="Subtract" fill-rule="evenodd" clip-rule="evenodd" d="M28 37C28 41.9706 32.0294 46 37 46C41.9706 46 46 41.9706 46 37C46 32.0294 41.9706 28 37 28C32.0294 28 28 32.0294 28 37ZM44 37C44 40.866 40.866 44 37 44C33.134 44 30 40.866 30 37C30 33.134 33.134 30 37 30C40.866 30 44 33.134 44 37Z" fill="#36A269"/>
<path id="Checkmark" d="M36 37.5858L36.7071 38.2929C37.0976 38.6834 37.0976 39.3166 36.7071 39.7071C36.3166 40.0976 35.6834 40.0976 35.2929 39.7071L33.2929 37.7071C32.9024 37.3166 32.9024 36.6834 33.2929 36.2929C33.6834 35.9024 34.3166 35.9024 34.7071 36.2929L36 37.5858L39.2929 34.2929C39.6834 33.9024 40.3166 33.9024 40.7071 34.2929C41.0976 34.6834 41.0976 35.3166 40.7071 35.7071L36.7071 39.7071C36.3166 40.0976 35.6834 40.0976 35.2929 39.7071C34.9024 39.3166 34.9024 38.6834 35.2929 38.2929L36 37.5858Z" fill="#36A269"/>
<rect id="Rectangle 2035" x="12.5" y="30.5" width="13" height="9" rx="0.5" fill="#E1F3EA" stroke="#0777CF"/>
<path id="Signature (Stroke)" fill-rule="evenodd" clip-rule="evenodd" d="M19.9526 30.6949C20.3529 30.4832 20.8064 30.4218 21.2669 30.6223C21.6019 30.7681 21.941 30.9976 22.0488 31.3799C22.1632 31.786 21.9573 32.1315 21.7577 32.3543C21.5492 32.5869 21.2512 32.7996 20.9229 32.9917C20.5884 33.1875 20.1935 33.3785 19.7676 33.5595C19.3942 33.7182 18.9897 33.8722 18.5714 34.0173C18.4927 34.1574 18.4135 34.3006 18.3335 34.4461C18.5772 34.3864 18.8207 34.3359 19.0624 34.2958C19.5467 34.2154 19.9441 34.1837 20.265 34.2009C20.5775 34.2176 20.8736 34.2833 21.1032 34.4506C21.3615 34.6388 21.4712 34.9072 21.4791 35.174C21.4861 35.413 21.4131 35.644 21.3356 35.8305C21.2505 36.0353 21.1243 36.2625 21.0049 36.4678C21.9079 36.2182 22.7449 36.2345 23.4493 36.4089C24.3919 36.6424 25.1602 37.1807 25.4525 37.8047C25.5697 38.0548 25.4619 38.3525 25.2119 38.4696C24.9618 38.5868 24.6641 38.479 24.547 38.2289C24.4272 37.9733 23.979 37.5703 23.2089 37.3796C22.4689 37.1963 21.4856 37.2284 20.3916 37.7708C20.1971 37.8673 19.9625 37.8271 19.8111 37.6714C19.5522 37.4052 19.6152 37.0654 19.6593 36.9102C19.7102 36.7308 19.8061 36.5451 19.8939 36.3878C19.9596 36.27 20.0249 36.1597 20.0872 36.0543C20.2154 35.8376 20.331 35.6421 20.4121 35.447C20.4526 35.3494 20.47 35.2828 20.4763 35.2418C20.4682 35.2389 20.4586 35.2359 20.4473 35.2327C20.3966 35.2186 20.3206 35.2053 20.2116 35.1995C19.9914 35.1877 19.6732 35.2081 19.226 35.2823C18.708 35.3682 18.1772 35.5086 17.6571 35.6863C17.1895 36.5363 16.6998 37.3838 16.1897 38.0506C15.8655 38.4743 15.5134 38.8522 15.1291 39.1151C14.7399 39.3813 14.2902 39.5472 13.7963 39.4883C13.4185 39.4431 13.0662 39.3387 12.8176 39.1159C12.531 38.859 12.4536 38.5119 12.5248 38.1803C12.5886 37.8838 12.7664 37.6046 12.9722 37.3604C13.1846 37.1084 13.461 36.8538 13.7779 36.6066C14.5842 35.9773 15.729 35.3369 16.9618 34.8734C17.0234 34.7605 17.0851 34.6469 17.147 34.533L17.1516 34.5246C17.1649 34.5 17.1783 34.4754 17.1917 34.4507C16.1441 34.7473 15.125 34.9639 14.3872 35.0392C14.1125 35.0673 13.867 34.8673 13.839 34.5926C13.8109 34.3179 14.0109 34.0724 14.2856 34.0444C15.1785 33.9533 16.5754 33.624 17.8904 33.1919C18.2312 32.6017 18.5778 32.0517 18.9291 31.6133C19.2338 31.2329 19.5732 30.8956 19.9526 30.6949ZM19.4279 32.6172C19.8076 32.454 20.1435 32.2893 20.4178 32.1287C20.7106 31.9573 20.9058 31.8064 21.013 31.6868C21.0297 31.6682 21.0426 31.6523 21.0525 31.6391C21.019 31.6148 20.962 31.5802 20.8677 31.5392C20.734 31.481 20.6014 31.483 20.4201 31.5789C20.2179 31.6858 19.9804 31.9004 19.7095 32.2385C19.616 32.3553 19.5221 32.482 19.4279 32.6172ZM16.1456 36.3174C15.4704 36.652 14.8639 37.0275 14.3931 37.3949C14.1122 37.6141 13.8915 37.8214 13.7368 38.0049C13.5801 38.1908 13.5197 38.3188 13.5038 38.3849C13.5485 38.4131 13.6649 38.4655 13.9149 38.4953C14.0991 38.5173 14.3091 38.4644 14.5645 38.2897C14.8247 38.1117 15.102 37.8266 15.3954 37.443C15.6474 37.1137 15.8967 36.7317 16.1456 36.3174ZM20.6159 37.2067C20.6157 37.2069 20.616 37.2041 20.6175 37.1978C20.6169 37.2034 20.6161 37.2066 20.6159 37.2067Z" fill="#2F373E"/>
<rect id="Rectangle 2037" x="12.5" y="30.5" width="13" height="9" rx="0.5" stroke="#36A269"/>
<rect id="Rectangle 2036" x="26.5" y="21.5" width="5" height="5" rx="0.5" fill="#E1F3EA" stroke="#36A269"/>
<path id="Vector 746 (Stroke)" fill-rule="evenodd" clip-rule="evenodd" d="M30.8536 22.6464C31.0488 22.8417 31.0488 23.1583 30.8536 23.3536L28.8536 25.3536C28.6583 25.5488 28.3417 25.5488 28.1464 25.3536L27.1464 24.3536C26.9512 24.1583 26.9512 23.8417 27.1464 23.6464C27.3417 23.4512 27.6583 23.4512 27.8536 23.6464L28.5 24.2929L30.1464 22.6464C30.3417 22.4512 30.6583 22.4512 30.8536 22.6464Z" fill="#2F373E"/>
</g>
</svg>
