<svg width="98" height="28" viewBox="0 0 98 28" fill="none" xmlns="http://www.w3.org/2000/svg">
<g id="Logo/Full/SignNow">
<path id="signNow-logo" fill-rule="evenodd" clip-rule="evenodd" d="M17.0506 5.84775C17.0506 5.80015 17.0443 5.75276 17.032 5.70679C16.9538 5.4161 16.6538 5.24357 16.3619 5.32142L13.7186 6.02643C13.4793 6.09023 13.313 6.30612 13.313 6.55276V8.03647C13.313 8.08407 13.3192 8.13146 13.3316 8.17744C13.4098 8.46812 13.7098 8.64066 14.0017 8.5628L16.645 7.8578C16.8842 7.79399 17.0506 7.5781 17.0506 7.33147V5.84775ZM52.2247 5.57182L52.1586 5.49528C52.0384 5.37894 51.871 5.32004 51.701 5.33839L49.124 5.61637L49.0305 5.63436C48.7893 5.70203 48.6165 5.9224 48.6165 6.17948V21.9663L48.6256 22.0682C48.6738 22.3324 48.906 22.5328 49.1852 22.5328H51.7208L51.823 22.5236C52.0884 22.4757 52.2896 22.2443 52.2896 21.9658L52.269 11.216L59.7157 22.2817L59.7872 22.368C59.8927 22.4725 60.0365 22.5328 60.1882 22.5328H62.0824L62.1846 22.5236C62.4499 22.4757 62.6511 22.2444 62.6511 21.9663V6.18305L62.6431 6.08813C62.6012 5.84087 62.3978 5.64557 62.1397 5.61953L59.6274 5.36617L59.5248 5.36499C59.256 5.38609 59.0324 5.59598 59.0042 5.87263L59.0014 5.93219L59.0418 15.0562L52.2247 5.57182ZM36.433 9.13039L36.4688 9.22616L36.9456 10.9628C38.0911 10.0491 39.5607 9.19961 41.1168 9.19961C44.2477 9.19961 46.2345 11.0502 46.3425 14.4115L46.3471 14.7033V21.9697C46.3471 22.2478 46.1459 22.4791 45.8806 22.527L45.7784 22.5361H43.1985C42.9193 22.5361 42.6871 22.3358 42.6389 22.0716L42.6297 21.9697V14.7033C42.6297 13.0935 41.7436 12.3974 40.0794 12.3974C39.1515 12.3974 38.1483 13.0347 37.5442 13.6856L37.4211 13.8251V21.9697C37.4211 22.2478 37.2199 22.4791 36.9545 22.527L36.8523 22.5361H34.2724C33.9932 22.5361 33.761 22.3358 33.7128 22.0716L33.7037 21.9697V9.82359C33.7037 9.60016 33.835 9.40091 34.0336 9.30952L34.1226 9.2772L35.7701 8.82905C36.0058 8.76506 36.2473 8.85836 36.3821 9.04491L36.433 9.13039ZM77.6231 16.0009C77.6231 11.4953 75.6783 9.19961 71.0926 9.19961C66.5274 9.19961 64.5417 11.4953 64.5417 16.0009C64.5417 20.5065 66.5274 22.7593 71.0926 22.7593C75.6783 22.7593 77.6231 20.5065 77.6231 16.0009ZM24.8174 9.25625C25.9639 9.25625 27.2326 9.39543 28.2781 9.86151C28.3664 9.90089 28.5471 10.0002 28.7184 10.158C28.7512 10.1882 29.3462 10.0376 30.5035 9.70619C30.7691 9.63014 31.0454 9.7554 31.1669 9.99227L31.2049 10.0862L31.6113 11.4214C31.6839 11.6899 31.5501 11.9654 31.3064 12.0804L31.2101 12.1157L30.3724 12.3405C30.4441 12.7794 30.4799 13.1217 30.4799 13.3672C30.4799 15.8209 28.9671 17.4136 24.839 17.4136C24.169 17.4136 23.499 17.3705 22.8506 17.2629C22.5264 17.4136 22.3535 17.6288 22.3535 17.8871C22.3535 18.1831 22.5896 18.3705 23.1451 18.4494L23.3045 18.4682L27.0219 18.6189C30.588 18.7696 31.8199 19.9964 31.8199 21.955C31.8199 24.6239 29.8532 26.3027 24.9471 26.3027C20.6461 26.3027 18.9387 24.7531 18.9387 22.7514C18.9387 21.955 19.3061 21.2232 19.9978 20.6851C19.4142 20.2332 19.0036 19.5875 19.0036 18.7265C19.0036 17.8441 19.5223 16.9831 20.7542 16.4235C19.76 15.8209 19.1549 14.8523 19.1549 13.3672C19.1549 11.0212 20.6677 9.25625 24.8174 9.25625ZM22.6345 21.3954C22.2455 21.6752 22.0726 22.0411 22.0726 22.3424C22.0726 23.1865 22.7845 23.6171 24.6054 23.6529L24.8606 23.6554C27.8432 23.6769 28.5564 23.2034 28.5564 22.4931C28.5564 21.9844 28.2349 21.7069 26.8449 21.5959L26.3951 21.5676L22.6345 21.3954ZM6.51593 9.2336C7.69908 9.2336 8.88222 9.40472 9.97233 9.71608L10.3141 9.82202C10.5851 9.9151 10.7398 10.1802 10.6989 10.4456L10.6743 10.5449L10.0877 12.2379C10.0144 12.4494 9.81009 12.5818 9.59309 12.5708L9.49967 12.5571L9.26603 12.502C8.24327 12.2745 7.15859 12.1608 6.36464 12.1608C5.13272 12.1608 4.44111 12.5482 4.44111 13.1724C4.44111 13.9025 5.50241 14.1483 6.7974 14.4483C8.82366 14.9176 11.422 15.5195 11.422 18.3164C11.422 20.8562 9.80107 22.7503 5.75949 22.7503C4.20008 22.7503 2.81905 22.5282 1.64107 22.0595L1.4091 21.9604C1.17114 21.8535 1.04064 21.6018 1.08158 21.3529L1.1051 21.26L1.70038 19.5365C1.77734 19.3343 1.9856 19.2199 2.19195 19.2531L2.27988 19.2766L2.67142 19.4129C3.73197 19.7534 4.90851 19.9092 5.82432 19.9092C7.31561 19.9092 7.94238 19.3711 7.94238 18.6823C7.94238 17.9157 6.85963 17.6569 5.54175 17.3419C3.49262 16.852 0.875 16.2263 0.875 13.3446C0.875 10.8909 2.69047 9.2336 6.51593 9.2336ZM17.048 10.306C17.048 10.2584 17.0417 10.2111 17.0294 10.1651C16.9513 9.87442 16.6513 9.70183 16.3594 9.77964L13.7137 10.4848C13.4744 10.5486 13.308 10.7645 13.308 11.0112V21.9956C13.308 22.2966 13.553 22.5405 13.8552 22.5405H16.5009C16.803 22.5405 17.048 22.2966 17.048 21.9956V10.306ZM78.8051 9.21916L81.541 9.93495C81.7536 9.99057 81.915 10.1632 81.9555 10.3783L83.459 18.3594L83.6162 19.4447L83.8276 18.3522L85.411 11.0468C85.4682 10.7829 85.7044 10.5959 85.9755 10.5999L89.5336 10.6531C89.7991 10.6571 90.0265 10.8434 90.0815 11.102L91.6251 18.3575L91.7915 19.4198L91.9732 18.3546L93.5285 10.5302C93.5752 10.2954 93.7652 10.1151 94.003 10.08L96.4727 9.71493C96.7835 9.66901 97.0727 9.88262 97.1188 10.192C97.1297 10.2646 97.1262 10.3386 97.1087 10.4099L94.2354 22.1005C94.1731 22.354 93.945 22.5323 93.683 22.5323H90.0292C89.7634 22.5323 89.5331 22.3489 89.4745 22.0908L87.9299 15.2871L87.7647 14.142L87.5196 15.2982L85.8038 22.1038C85.7403 22.3557 85.5129 22.5323 85.2522 22.5323H81.6119C81.3491 22.5323 81.1205 22.3529 81.059 22.0985L78.1076 9.89964C78.034 9.59553 78.2219 9.2896 78.5273 9.21632C78.6187 9.1944 78.7141 9.19537 78.8051 9.21916ZM68.1856 15.9795C68.1856 13.083 68.984 12.139 71.0926 12.139C73.1807 12.139 73.9382 13.083 73.9382 15.9795C73.9382 18.8759 73.1807 19.8414 71.0926 19.8414C68.984 19.8414 68.1856 18.8974 68.1856 15.9795ZM24.8606 11.9251C23.3477 11.9251 22.829 12.3987 22.829 13.4533C22.829 14.6586 23.6071 14.9599 24.7742 14.9599C26.4384 14.9599 26.8922 14.5295 26.8922 13.4533C26.8922 12.3556 26.3303 11.9251 24.8606 11.9251Z" fill="#0777CF"/>
</g>
</svg>
